<?xml version="1.0" standalone="no"?>
<svg xmlns="http://www.w3.org/2000/svg"
     width="2142pt" height="2150pt"
     viewBox="0 0 2142 2150"
     preserveAspectRatio="xMidYMid meet">

  <!-- ====== DEFINITIONS ====== -->
  <defs>
    <!-- Ocean subtle vertical gradient -->
    <linearGradient id="oceanGradient" x1="0" y1="0" x2="0" y2="1">
      <stop offset="0%" stop-color="#ffffff"/>
      <stop offset="100%" stop-color="#e6e7e8"/>
    </linearGradient>

    <!-- Land radial gradient -->
    <radialGradient id="landGradient" cx="50%" cy="50%" r="75%">
      <stop offset="0%" stop-color="#0f5795"/>
      <stop offset="100%" stop-color="#1a75b6"/>
    </radialGradient>

    <!-- Subtle drop shadow -->
    <filter id="shadow" x="-20%" y="-20%" width="140%" height="140%">
      <feDropShadow dx="1.5" dy="1.5" stdDeviation="2"
                    flood-color="#000000" flood-opacity="0.15"/>
    </filter>
  </defs>

  <!-- ====== OCEAN BACKGROUND ====== -->
  <rect width="100%" height="100%" fill="url(#oceanGradient)" />

  <!-- ====== CONTINENT PATHS (YOUR MAP SHAPES) ====== -->
  <g transform="translate(0,2150) scale(0.1,-0.1)"
     fill="url(#landGradient)" stroke="#1a75b6" stroke-width="0.8"
     filter="url(#shadow)">
<path d="M7988 17299 c-84 -9 -111 -19 -145 -56 -27 -28 -82 -31 -175 -7 -46
12 -83 15 -138 10 -80 -7 -150 -23 -150 -33 0 -4 15 -20 33 -35 30 -28 31 -29
7 -23 -76 17 -80 18 -80 2 0 -8 24 -29 53 -46 61 -36 87 -55 87 -66 0 -17
-100 5 -176 39 -83 36 -162 59 -176 49 -5 -2 12 -27 37 -55 26 -27 45 -52 42
-54 -6 -6 -73 27 -127 61 -19 13 -45 26 -58 30 -23 7 -23 5 -17 -37 7 -48 -11
-85 -37 -75 -12 4 -15 16 -11 49 6 50 -12 78 -50 78 -28 0 -217 -62 -217 -71
0 -4 10 -9 23 -13 28 -7 91 -46 84 -52 -5 -5 -145 39 -184 58 -36 18 -71 -3
-75 -44 -3 -31 -6 -33 -78 -54 -41 -12 -93 -29 -115 -39 -22 -9 -61 -23 -86
-31 -53 -16 -74 -36 -65 -60 5 -14 16 -15 65 -10 70 8 76 1 58 -70 l-12 -48
-144 -18 c-169 -21 -199 -29 -242 -69 -30 -28 -31 -30 -15 -48 24 -27 94 -42
219 -48 75 -4 107 -9 107 -18 0 -21 -53 -36 -146 -43 -106 -8 -118 -23 -45
-54 28 -12 51 -27 51 -33 0 -6 19 -23 42 -38 47 -30 81 -36 72 -12 -21 54 298
42 421 -16 89 -42 208 -212 222 -317 3 -23 11 -46 18 -52 9 -8 10 -20 2 -49
-15 -54 -1 -67 76 -76 78 -9 140 -35 163 -69 9 -15 14 -29 11 -32 -3 -3 -34 2
-70 11 -36 9 -80 15 -98 13 -31 -3 -32 -5 -36 -56 -5 -66 7 -82 59 -82 74 0
103 36 51 64 l-28 15 35 1 c49 0 77 -23 90 -73 6 -23 13 -50 16 -59 4 -13 0
-18 -14 -18 -42 0 -81 -22 -91 -51 -6 -19 -15 -27 -24 -23 -18 6 -47 -21 -47
-44 0 -9 18 -49 40 -89 29 -51 45 -71 55 -67 8 4 22 3 31 0 15 -6 15 -9 -5
-29 -25 -27 -26 -46 -7 -72 13 -17 17 -18 40 -6 33 18 37 14 26 -34 -16 -72
11 -159 74 -239 36 -47 156 -107 265 -133 70 -17 72 -16 91 3 26 25 54 168 39
196 -13 25 -5 48 17 48 31 0 53 31 79 111 32 94 47 115 100 134 25 8 39 19 39
29 -3 24 42 21 49 -4 15 -58 120 17 268 190 46 54 46 54 72 37 44 -29 101 -32
139 -9 19 12 91 41 161 65 111 39 197 81 197 97 0 3 -20 4 -45 2 -57 -5 -132
29 -141 63 -8 34 1 43 51 51 40 5 49 3 83 -24 56 -45 86 -50 107 -18 25 37 13
68 -50 134 -30 31 -55 57 -55 59 0 1 12 -2 26 -7 64 -25 86 -4 58 55 -17 36
-19 37 -60 31 -41 -5 -42 -5 -31 17 10 22 12 23 61 10 70 -18 99 -16 130 8 42
33 39 38 -43 59 -56 15 -41 26 49 35 94 9 102 17 62 58 -38 40 -41 63 -7 71
46 12 26 52 -50 101 -30 19 -55 39 -55 44 0 27 77 47 115 29 20 -9 25 -18 25
-50 0 -54 17 -39 25 22 8 61 -4 80 -51 80 -42 0 -44 15 -4 35 17 9 28 20 25
25 -11 18 -71 22 -108 7 -42 -18 -47 -15 -47 31 0 31 10 46 83 117 45 45 115
106 155 136 39 29 72 57 72 61 0 4 -24 8 -52 10 l-53 3 75 18 c41 9 90 26 108
37 18 11 50 23 72 26 46 8 64 25 55 53 -9 29 -56 35 -165 22 -152 -19 -230
-39 -340 -90 -58 -27 -116 -52 -129 -56 -23 -7 -23 -5 10 34 38 48 69 93 69
102 0 10 -77 39 -104 39 -17 0 -26 -7 -30 -24 -6 -24 -35 -40 -93 -50 -25 -4
-33 -2 -33 9 0 16 24 29 75 41 l30 7 -30 13 c-45 20 -108 17 -220 -10 -141
-34 -182 -39 -190 -26 -12 19 97 60 206 76 57 8 178 20 268 27 180 13 221 29
104 42 -37 4 -99 13 -136 21 -44 9 -134 14 -255 14 -180 1 -186 1 -157 18 24
13 67 18 210 22 175 5 179 5 154 22 -14 10 -49 22 -78 28 -62 12 -380 11 -493
-1z"/>
<path d="M5961 17222 c-8 -14 -24 -17 -88 -17 -43 0 -104 4 -136 8 -53 7 -60
5 -82 -17 -22 -22 -28 -23 -62 -14 -60 16 -222 6 -260 -17 -18 -11 -33 -22
-33 -26 0 -4 21 -10 48 -14 57 -8 149 -58 116 -63 -11 -2 -56 12 -100 29 -103
42 -159 46 -265 21 -46 -12 -135 -33 -196 -47 -65 -16 -113 -32 -112 -38 0
-15 109 -86 158 -103 52 -19 74 -17 137 11 68 30 89 32 52 4 -60 -45 -22 -66
100 -55 68 6 136 26 282 81 19 7 53 16 75 20 l40 7 -55 -29 -55 -28 58 -3 c31
-2 57 -7 57 -12 0 -16 -133 -46 -248 -56 -55 -5 -82 -11 -82 -19 0 -16 90 -75
113 -75 10 0 17 -4 17 -9 0 -15 -65 -2 -165 32 -164 55 -175 58 -175 42 0 -48
137 -139 225 -152 25 -3 45 -9 45 -13 0 -4 -9 -19 -21 -34 l-21 -26 -28 20
c-56 40 -148 42 -206 3 -25 -16 -32 -47 -13 -59 6 -4 37 -6 68 -6 48 0 53 -1
39 -12 -17 -12 -17 -14 0 -30 25 -22 58 -20 98 5 39 24 45 13 10 -20 -31 -29
-93 -30 -178 -3 -35 11 -77 23 -95 26 -31 5 -32 4 -23 -19 13 -33 -1 -67 -34
-85 -34 -18 -29 -30 19 -54 49 -24 214 -33 325 -18 60 9 77 8 90 -3 25 -23 65
-27 103 -12 69 29 104 88 50 84 -38 -3 -40 24 -3 45 25 14 29 21 24 45 -5 28
-5 28 43 25 62 -5 84 15 60 52 -16 23 -15 24 24 29 47 6 54 11 45 32 -14 36
-76 40 -173 10 -17 -6 -23 -3 -23 8 0 25 65 40 141 34 104 -9 173 17 133 49
-17 13 -14 14 33 8 29 -4 68 -3 88 0 l36 7 -22 27 -21 27 54 7 c35 5 102 32
195 78 79 38 147 70 153 70 5 0 10 4 10 9 0 16 -49 22 -130 15 -44 -4 -80 -4
-80 0 0 15 62 28 189 37 155 11 206 28 206 69 0 41 -73 62 -232 66 -90 2 -142
8 -160 18 -28 14 -81 29 -140 40 -24 4 -35 1 -42 -12z"/>
<path d="M13345 16994 c-16 -9 -51 -22 -76 -30 -28 -9 -58 -28 -79 -50 -31
-35 -32 -37 -9 -31 13 4 50 7 82 7 50 0 57 2 57 20 0 23 5 24 49 9 24 -8 35
-8 46 1 24 20 17 30 -20 30 l-36 0 16 30 c18 34 12 37 -30 14z"/>
<path d="M4658 16973 c6 -2 18 -2 25 0 6 3 1 5 -13 5 -14 0 -19 -2 -12 -5z"/>
<path d="M15234 16965 c-13 -33 18 -45 52 -20 16 13 17 16 4 25 -22 14 -50 12
-56 -5z"/>
<path d="M4702 16959 c2 -7 -4 -14 -12 -15 -89 -15 -92 -16 -81 -27 21 -21 12
-37 -23 -37 -29 0 -36 -4 -45 -31 -25 -72 -2 -92 117 -103 41 -3 85 -12 99
-19 24 -13 23 -14 -42 -32 l-68 -18 24 -18 c13 -10 44 -28 69 -41 89 -43 250
-22 250 32 0 17 7 20 53 20 93 0 105 47 29 120 -37 36 -79 60 -187 107 -165
72 -187 79 -183 62z"/>
<path d="M13485 16914 c-20 -20 -34 -38 -31 -41 10 -10 143 -15 149 -6 10 16
-42 83 -63 83 -11 0 -36 -16 -55 -36z"/>
<path d="M13725 16940 c-11 -5 -35 -9 -54 -9 -29 -1 -32 -3 -21 -17 29 -34 48
-36 105 -7 30 16 55 31 55 36 0 10 -60 8 -85 -3z"/>
<path d="M15431 16931 c-29 -10 -67 -32 -83 -49 l-31 -30 49 -22 c75 -33 113
-36 164 -10 48 24 129 81 130 91 0 9 -75 29 -128 35 -31 3 -65 -2 -101 -15z"/>
<path d="M12805 16908 c-38 -5 -89 -10 -112 -10 -42 -1 -54 -10 -32 -23 14
-10 67 -10 112 -1 36 7 37 6 26 -12 -7 -11 -9 -27 -5 -37 5 -15 15 -17 58 -13
44 5 57 11 85 42 62 67 39 77 -132 54z"/>
<path d="M11373 16860 c-12 -5 -29 -21 -39 -35 -17 -26 -17 -26 -38 -6 -50 46
-166 48 -166 2 0 -24 30 -35 70 -26 33 7 70 -1 70 -16 0 -5 -19 -9 -41 -9 -41
0 -41 0 -27 -22 38 -57 163 -56 302 2 100 43 106 47 81 66 -16 12 -38 15 -103
12 -77 -4 -106 2 -82 17 12 7 14 25 3 24 -5 0 -18 -4 -30 -9z"/>
<path d="M13360 16864 c-14 -2 -42 -9 -63 -15 -33 -9 -37 -13 -26 -25 8 -10
21 -13 37 -9 13 3 30 1 37 -5 18 -15 87 18 83 40 -3 16 -26 20 -68 14z"/>
<path d="M4300 16815 c0 -19 35 -37 66 -33 l25 3 -21 23 c-24 25 -70 30 -70 7z"/>
<path d="M13432 16813 c-6 -2 -10 -9 -6 -14 8 -14 40 -11 54 6 10 13 9 15 -11
14 -13 0 -30 -3 -37 -6z"/>
<path d="M15545 16811 c-108 -26 -121 -92 -27 -133 35 -16 69 -21 141 -22 l96
-1 3 49 c2 27 1 60 -3 73 -5 21 -9 23 -43 17 -20 -3 -41 -7 -47 -8 -5 0 -9 7
-7 17 2 14 -4 17 -40 16 -24 -1 -56 -4 -73 -8z"/>
<path d="M15280 16792 c0 -18 33 -52 50 -52 23 0 70 20 70 30 0 8 -78 30 -104
30 -9 0 -16 -3 -16 -8z"/>
<path d="M10795 16783 c-47 -12 -125 -45 -125 -54 0 -5 16 -15 35 -23 29 -12
35 -20 35 -45 0 -16 -3 -37 -6 -46 -6 -14 -10 -13 -30 11 -31 36 -39 27 -12
-14 21 -33 48 -43 48 -17 0 21 24 19 45 -5 24 -27 47 -25 75 5 18 20 33 25 70
25 43 0 92 -21 79 -34 -3 -3 -32 -11 -65 -17 -58 -11 -120 -36 -111 -45 3 -3
38 -1 78 5 44 6 78 6 83 1 5 -5 -3 -12 -20 -15 -77 -18 -119 -31 -119 -40 0
-5 30 -30 67 -57 l67 -47 43 45 c58 62 76 90 94 150 13 44 19 52 43 56 38 5
51 0 51 -22 0 -10 9 -20 20 -23 29 -7 36 -35 16 -67 -19 -33 -21 -49 -4 -32
17 17 63 15 78 -3 7 -8 19 -15 26 -15 21 0 124 44 124 53 0 4 -13 10 -30 13
-16 4 -32 14 -35 23 -3 9 -33 29 -68 45 -34 16 -96 51 -138 77 -42 27 -86 49
-98 49 -18 0 -21 5 -19 33 3 30 1 32 -35 35 -35 3 -43 -1 -78 -39 l-39 -42
-15 36 -15 36 -46 -20 -46 -19 4 25 c3 14 2 24 -1 24 -3 -1 -15 -4 -26 -6z"/>
<path d="M15910 16713 c-30 -11 -73 -59 -96 -108 -41 -87 -41 -87 127 -50 144
32 159 38 159 68 0 29 -35 47 -108 54 -37 4 -50 9 -43 16 24 24 1 35 -39 20z"/>
<path d="M4039 16668 c42 -40 43 -43 21 -48 l-22 -5 23 -12 c42 -22 78 -32
178 -53 129 -26 125 -26 117 13 -14 78 -150 147 -289 147 l-72 0 44 -42z"/>
<path d="M3636 16636 c-75 -28 -66 -36 39 -36 99 0 99 0 80 20 -27 27 -72 33
-119 16z"/>
<path d="M4424 16639 c-7 -12 14 -51 40 -71 24 -20 74 -23 111 -6 54 24 15 56
-93 76 -29 5 -55 6 -58 1z"/>
<path d="M16140 16581 c0 -12 72 -40 84 -33 14 8 -33 42 -60 42 -13 0 -24 -4
-24 -9z"/>
<path d="M3442 16558 c5 -15 57 -42 65 -35 2 3 0 15 -7 26 -12 23 -65 31 -58
9z"/>
<path d="M3612 16549 c-73 -21 -39 -84 44 -81 58 3 67 8 61 39 -3 19 0 27 14
30 11 3 19 9 19 14 0 12 -95 10 -138 -2z"/>
<path d="M4150 16530 c0 -16 33 -27 60 -20 l25 6 -22 12 c-26 14 -63 16 -63 2z"/>
<path d="M4634 16534 c-5 -1 -20 -5 -34 -8 -14 -3 -31 -15 -38 -27 -14 -22
-14 -22 49 -15 66 8 103 21 94 35 -5 9 -54 19 -71 15z"/>
<path d="M3980 16505 c0 -19 36 -55 55 -55 23 0 18 18 -11 45 -31 29 -44 31
-44 10z"/>
<path d="M4790 16491 c-15 -30 -14 -31 38 -31 60 0 81 12 63 34 -20 24 -88 21
-101 -3z"/>
<path d="M15995 16488 c-52 -19 -147 -88 -141 -104 4 -10 -4 -14 -32 -14 -22
0 -64 -14 -106 -35 -39 -19 -77 -35 -85 -35 -9 0 -44 9 -79 20 l-63 20 -77
-39 c-42 -21 -123 -50 -178 -64 -127 -31 -218 -74 -222 -103 -2 -15 3 -23 17
-27 28 -7 26 -18 -7 -42 -23 -17 -48 -21 -172 -26 -141 -5 -200 -18 -200 -43
0 -6 30 -41 66 -77 37 -38 63 -72 60 -78 -12 -19 -44 -12 -79 19 -42 36 -114
54 -182 44 -28 -4 -41 -9 -30 -12 23 -5 45 -21 45 -33 0 -4 -21 -9 -47 -11
l-48 -3 56 -37 c59 -38 89 -68 53 -54 -10 5 -37 12 -59 17 -22 5 -50 11 -62
14 -42 10 -53 32 -53 106 0 55 -3 69 -15 69 -9 0 -15 -9 -15 -25 0 -17 -14
-39 -38 -63 l-38 -37 9 -95 c11 -119 35 -163 78 -147 20 8 37 7 71 -6 52 -20
78 -58 78 -115 0 -38 2 -41 43 -55 35 -12 39 -16 23 -22 -26 -11 -45 3 -89 68
-43 66 -72 78 -123 54 -32 -16 -34 -19 -34 -70 0 -47 -4 -57 -32 -84 -68 -64
-142 -84 -233 -64 -28 6 -29 8 -10 18 11 6 36 14 55 18 84 18 145 73 164 148
5 23 2 32 -18 48 -32 25 -57 131 -59 246 -2 72 1 88 13 88 25 0 23 39 -5 65
-19 18 -39 25 -83 27 -73 5 -97 -8 -144 -77 -70 -102 -81 -130 -79 -194 2 -51
7 -62 35 -91 18 -18 45 -40 60 -50 20 -13 26 -25 24 -44 -4 -37 -33 -38 -69
-2 -16 17 -51 37 -77 45 -80 24 -214 76 -292 113 -113 53 -182 57 -132 7 76
-77 91 -128 46 -163 -34 -27 -38 -26 -52 4 -9 19 -19 25 -45 25 -18 0 -67 -11
-107 -25 -40 -14 -86 -25 -102 -25 -24 0 -28 4 -28 28 l0 28 -107 -36 c-119
-40 -165 -63 -235 -116 -58 -43 -115 -56 -134 -29 -24 32 -18 63 13 67 14 2
28 8 30 15 5 15 -76 63 -121 70 l-36 6 16 -44 c19 -53 29 -169 16 -187 -8 -11
-20 -12 -66 -2 -49 10 -60 9 -79 -4 -12 -9 -41 -29 -63 -44 l-42 -28 20 -38
c11 -21 18 -40 16 -42 -10 -9 -136 20 -161 38 -27 19 -29 19 -48 2 -10 -9 -19
-20 -19 -24 0 -4 23 -18 50 -31 59 -28 63 -52 10 -57 -60 -5 -108 22 -130 74
-19 44 -52 89 -132 183 -21 24 -38 47 -38 50 0 4 38 -5 84 -20 169 -55 330
-75 386 -46 47 24 52 96 9 136 -27 25 -122 75 -179 94 -25 8 -90 18 -145 22
-55 4 -103 9 -107 12 -5 2 -8 15 -8 29 0 28 -19 38 -95 48 -53 8 -97 26 -62
26 25 0 21 16 -10 38 -44 30 -60 32 -83 12 -28 -24 -42 -17 -30 14 11 30 5 36
-37 36 -30 0 -33 -3 -33 -30 0 -16 -2 -30 -5 -30 -15 0 -55 34 -55 46 0 19
-17 17 -69 -6 -48 -22 -71 -25 -71 -10 0 11 -39 13 -64 4 -20 -8 -20 -33 -1
-61 15 -21 15 -21 -40 -17 -54 5 -55 4 -55 -21 0 -27 -14 -34 -23 -11 -7 17
-42 41 -74 51 -20 6 -23 3 -23 -25 0 -17 -5 -40 -10 -51 -13 -24 -40 -25 -40
-2 0 32 -23 -5 -29 -47 -6 -38 -7 -39 -31 -27 -14 7 -26 23 -28 35 -2 12 -6
22 -8 22 -15 0 -74 -55 -70 -65 2 -7 -11 -17 -34 -24 -21 -6 -49 -21 -62 -32
-20 -18 -20 -20 -3 -14 73 26 140 45 160 45 36 0 38 -16 4 -30 -48 -20 -134
-113 -168 -181 -17 -34 -31 -68 -31 -76 0 -7 -8 -13 -19 -13 -10 0 -31 -10
-47 -22 l-28 -22 25 -7 c24 -6 24 -6 -14 -42 -26 -25 -58 -43 -98 -55 -49 -14
-59 -20 -55 -35 3 -11 -2 -20 -12 -23 -91 -29 -140 -72 -171 -152 -27 -68 -27
-92 -1 -92 22 0 26 -20 10 -51 -9 -16 -7 -21 14 -30 21 -10 23 -15 15 -36 -15
-40 -11 -43 49 -43 82 0 128 16 177 61 l43 40 25 -30 c14 -17 31 -47 37 -67 7
-21 29 -71 48 -113 20 -42 35 -86 34 -98 -2 -13 5 -26 17 -32 30 -16 41 -13
51 13 6 17 31 33 91 58 85 35 111 58 65 58 -34 0 -42 17 -18 43 42 47 123 179
118 193 -3 8 -16 14 -29 14 -20 0 -25 7 -35 58 -29 142 -8 186 120 251 54 27
68 45 92 117 9 28 26 61 37 72 57 62 205 -17 171 -92 -6 -13 -46 -51 -89 -84
-103 -79 -124 -102 -130 -149 -6 -48 12 -88 61 -131 48 -42 100 -48 227 -27
102 17 202 16 221 -3 6 -6 -5 -18 -28 -33 -32 -19 -56 -24 -163 -29 -74 -5
-147 -14 -176 -24 -27 -10 -57 -19 -65 -22 -12 -4 -12 -7 -1 -13 10 -6 5 -11
-18 -16 -17 -4 -31 -13 -31 -21 0 -26 32 -28 73 -5 42 25 39 26 100 -32 18
-18 18 -19 -4 -43 -29 -31 -56 -30 -90 2 -53 51 -97 0 -106 -121 l-6 -75 -54
0 c-38 0 -53 -4 -51 -12 4 -19 -4 -21 -37 -8 -25 10 -38 8 -80 -10 -98 -43
-111 -45 -169 -27 -73 23 -111 22 -130 -5 -14 -20 -18 -20 -56 -9 -75 22 -58
71 25 71 23 0 46 5 53 12 11 11 18 78 8 78 -2 0 -23 -7 -46 -15 -50 -18 -62
-13 -50 19 7 19 5 25 -9 29 -14 3 -16 12 -13 40 5 47 -16 57 -59 26 -46 -33
-60 -74 -49 -145 6 -33 10 -75 10 -94 0 -34 -3 -37 -67 -68 -87 -41 -148 -62
-183 -62 -27 0 -28 -1 -17 -29 8 -23 8 -33 -2 -45 -8 -9 -17 -16 -22 -16 -4 0
-33 -9 -64 -21 -51 -19 -58 -26 -85 -79 -34 -68 -56 -77 -118 -50 -25 11 -46
20 -49 20 -2 0 4 -14 12 -31 24 -46 9 -58 -69 -52 -59 5 -106 -6 -106 -25 0
-5 15 -16 34 -24 68 -33 158 -178 160 -259 2 -71 -7 -74 -237 -74 l-202 0 -3
-163 c-3 -208 3 -232 68 -266 27 -14 58 -26 67 -26 10 -1 29 -7 43 -15 14 -7
29 -10 35 -5 5 4 28 13 50 20 53 17 142 62 184 94 19 14 45 26 58 26 27 0 29
8 8 37 -13 18 -13 26 1 66 19 55 32 67 114 103 85 36 90 41 90 78 0 58 30 68
113 40 l47 -16 48 41 c68 57 92 64 130 40 18 -10 52 -45 77 -77 25 -32 83 -86
129 -120 94 -70 156 -133 156 -160 0 -25 -35 -43 -99 -49 -80 -8 -87 -14 -57
-46 40 -43 92 -38 157 16 28 23 63 61 76 85 l25 42 -27 0 c-20 0 -26 4 -23 18
2 9 11 15 19 13 8 -2 32 -6 54 -9 l39 -5 -24 30 c-42 50 -113 103 -162 121
-32 11 -48 22 -48 34 0 22 -57 78 -98 95 -23 10 -32 19 -28 31 16 60 18 62 44
62 32 0 61 -18 122 -75 25 -24 84 -68 132 -99 47 -31 93 -68 102 -81 14 -22
76 -183 76 -199 0 -2 -9 -6 -20 -8 -20 -3 -20 -4 -4 -26 12 -17 23 -22 38 -18
18 4 25 -1 37 -27 19 -44 46 -45 105 -2 27 19 61 43 76 53 21 14 25 21 16 30
-16 16 -28 15 -28 -3 0 -8 -4 -15 -10 -15 -15 0 -59 51 -81 93 l-20 39 33 -7
c18 -4 35 -7 38 -7 22 -1 29 4 24 17 -9 23 15 45 47 45 51 0 92 -80 154 -303
16 -59 35 -68 35 -16 0 33 2 34 33 15 28 -18 94 -29 101 -18 3 5 24 12 46 16
30 5 50 1 80 -14 60 -31 77 -26 70 19 -1 11 7 12 35 8 86 -14 109 -62 79 -163
-21 -72 -50 -119 -99 -163 -40 -35 -47 -36 -145 -15 l-35 7 21 -24 c11 -13 42
-56 68 -96 49 -75 67 -88 109 -78 20 5 30 0 51 -27 27 -36 118 -215 131 -258
24 -78 89 -181 168 -267 95 -103 120 -148 137 -243 16 -91 27 -108 74 -121 63
-17 100 -5 266 81 230 120 269 138 334 156 52 14 69 26 131 90 40 41 80 74 89
74 12 0 16 9 16 35 0 33 6 42 44 69 25 17 12 39 -53 91 -28 22 -54 51 -57 63
l-7 24 -21 -21 -21 -21 -20 62 c-11 34 -25 63 -32 66 -14 4 -43 -48 -43 -78 0
-15 -6 -20 -27 -20 -60 0 -163 13 -163 21 0 4 20 11 45 15 25 3 42 10 40 15
-3 4 -44 20 -90 34 -74 23 -90 33 -126 73 -56 64 -71 96 -67 145 5 64 26 60
155 -27 142 -96 221 -130 279 -121 29 4 46 2 53 -7 65 -80 86 -87 316 -98 182
-9 233 -23 318 -88 29 -22 63 -45 77 -52 l24 -13 -23 -8 c-32 -12 -23 -28 35
-60 68 -38 89 -42 107 -24 21 20 30 19 53 -6 15 -16 20 -43 25 -118 4 -68 14
-118 34 -171 15 -41 49 -140 77 -219 45 -132 75 -194 103 -213 5 -4 24 -8 41
-8 24 0 40 9 69 41 54 60 67 100 73 219 2 68 9 113 19 128 8 13 17 21 20 18
12 -12 55 24 186 160 75 78 158 155 185 172 44 28 189 72 237 72 17 0 31 -17
63 -80 23 -44 44 -95 47 -114 5 -25 13 -36 32 -41 23 -5 24 -8 18 -59 -6 -47
-4 -57 14 -75 27 -27 40 -26 85 4 20 14 41 25 46 25 5 0 22 -17 39 -37 34 -41
66 -129 81 -218 9 -53 7 -64 -15 -113 -43 -93 -36 -116 67 -226 14 -16 40 -68
57 -115 37 -104 89 -183 129 -200 40 -17 67 -11 66 14 -3 35 -54 227 -69 254
-7 14 -44 51 -82 81 -81 66 -101 102 -109 202 -6 63 -4 80 12 106 23 40 44 48
64 24 8 -10 31 -29 51 -41 20 -12 49 -37 63 -56 15 -19 41 -42 59 -51 41 -22
47 -31 47 -80 0 -22 2 -43 5 -46 3 -3 20 8 38 25 17 16 57 47 88 68 31 21 71
59 88 85 26 40 31 57 31 106 0 66 -9 88 -80 193 -91 133 -102 220 -36 270 32
24 130 49 149 38 11 -6 1 -37 -35 -106 -28 -56 -29 -60 -12 -78 23 -25 59 -24
78 3 9 12 23 57 33 100 15 74 18 78 52 91 20 8 56 18 80 22 78 13 147 42 212
89 204 149 345 355 269 396 -22 12 -26 40 -10 70 14 26 -5 78 -58 159 -64 98
-56 147 29 173 48 14 85 54 68 74 -6 7 -26 18 -46 25 -32 10 -37 9 -62 -15
-34 -32 -41 -33 -41 -2 0 28 -14 42 -53 51 -19 5 -27 13 -27 30 0 12 6 27 13
32 17 13 197 86 202 82 2 -2 -5 -22 -15 -44 -11 -22 -19 -43 -20 -47 0 -4 28
6 63 22 71 34 95 37 138 14 25 -12 30 -20 25 -37 -21 -74 -21 -75 20 -79 54
-4 66 -31 60 -128 -2 -41 -8 -84 -12 -94 -7 -17 -3 -18 44 -14 91 9 164 73
166 146 0 29 -8 48 -41 90 -62 77 -71 152 -19 152 21 0 26 7 35 52 13 57 37
101 76 138 23 22 34 25 87 22 92 -4 130 11 204 80 75 70 176 193 204 247 10
21 28 74 39 119 23 94 55 162 76 162 23 0 28 -61 22 -242 -6 -175 -6 -175 35
-140 16 13 19 12 36 -8 10 -13 23 -21 30 -19 10 4 1 37 -39 136 -12 28 -11 35
3 49 9 9 29 19 45 23 l30 6 -41 203 c-38 188 -59 244 -64 172 -1 -16 -7 -41
-12 -55 -6 -15 -10 -38 -10 -52 0 -26 0 -26 -20 -8 -11 10 -32 38 -47 61 -23
36 -98 94 -107 83 -2 -2 -9 -14 -15 -26 -15 -29 -45 -29 -65 -1 -13 18 -16 19
-16 5 0 -9 -7 -17 -15 -17 -10 0 -15 10 -15 28 0 38 -9 46 -32 25 -28 -25 -22
3 11 50 17 23 83 97 149 164 149 154 166 162 351 174 94 5 154 14 195 28 60
21 121 27 142 13 7 -4 14 -18 15 -32 3 -20 11 -26 36 -28 18 -2 43 4 57 13 19
13 29 14 45 6 11 -6 22 -7 25 -2 3 4 17 6 31 3 28 -5 33 9 11 30 -19 20 0 64
56 124 75 82 166 107 213 59 14 -13 25 -36 25 -50 0 -53 51 -26 156 81 51 53
103 82 118 67 6 -6 -103 -160 -152 -214 -24 -26 -87 -77 -141 -112 -110 -73
-182 -147 -199 -204 -28 -94 -24 -276 9 -380 12 -39 17 -39 69 -13 31 16 50
38 87 101 52 91 92 129 132 129 27 0 28 1 23 48 -5 57 16 87 55 79 22 -4 23
-2 23 69 0 75 -2 79 -42 75 -16 -2 -16 1 -4 37 23 65 54 120 78 136 25 18 128
22 128 6 0 -20 30 -10 46 15 16 24 21 26 93 23 69 -3 76 -5 79 -25 4 -28 32
-40 32 -13 0 32 65 95 138 133 102 53 248 100 314 101 32 1 58 5 58 9 0 5 -5
28 -11 52 -13 53 -39 77 -99 94 -25 7 -51 18 -59 24 -20 17 16 25 110 26 62 1
81 5 104 22 22 18 26 28 23 60 -4 44 9 50 37 19 10 -11 42 -24 77 -31 34 -7
75 -24 99 -41 22 -15 62 -34 89 -40 65 -15 100 5 100 57 l0 35 65 0 c73 0 87
12 66 56 -13 30 -57 50 -142 63 -69 11 -92 3 -69 -24 20 -24 -1 -38 -28 -19
-16 11 -22 25 -21 42 4 51 0 60 -33 67 -17 4 -54 22 -82 40 -148 94 -306 162
-433 186 -89 16 -242 8 -278 -15 -24 -16 -26 -20 -12 -28 26 -14 20 -35 -14
-47 -39 -13 -69 -14 -89 -1 -12 8 -9 15 18 43 18 18 29 36 26 40 -13 13 -55 7
-107 -15 -44 -20 -70 -23 -167 -23 -63 0 -127 3 -142 8 -25 6 -27 5 -30 -25
-3 -30 -5 -28 -58 52 -76 116 -96 126 -230 121 -227 -8 -218 -9 -304 32 -43
20 -85 37 -93 37 -11 0 -14 7 -9 25 5 21 2 26 -21 31 -17 5 -52 0 -88 -10 -91
-26 -101 -26 -97 5 3 25 0 26 -97 48 -99 23 -139 23 -216 1 -16 -4 -42 -11
-57 -14 -36 -8 -35 -25 2 -61 17 -16 30 -33 30 -38 0 -8 -82 -2 -124 10 -18 5
-18 4 -2 -18 38 -54 12 -57 -58 -7 -35 25 -47 28 -117 28 -96 0 -122 -9 -151
-55 -37 -56 -52 -55 -120 11 l-59 59 7 71 c6 69 5 71 -22 93 -15 12 -34 19
-43 16 -51 -20 -100 -17 -156 9 -68 31 -85 24 -85 -35 l0 -39 -83 0 c-103 0
-131 8 -193 55 l-49 38 -80 -7 c-44 -3 -106 -9 -137 -12 -55 -6 -58 -6 -58 15
0 24 -7 25 -46 11 -19 -8 -30 -8 -38 0 -7 7 -7 10 1 10 15 0 73 49 73 61 0 21
-58 7 -104 -26 -27 -19 -59 -35 -71 -35 -14 0 -26 -10 -33 -25 -15 -32 -49
-45 -114 -45 l-52 0 90 44 c77 38 229 132 288 180 44 35 13 112 -60 150 -33
18 -57 21 -166 21 -113 0 -127 2 -123 16 6 19 -20 29 -77 29 -44 0 -48 13 -16
47 l21 23 -54 -1 c-30 0 -67 -5 -84 -11z m-4464 -780 c-12 -32 -31 -34 -31 -4
0 19 5 26 20 26 16 0 18 -4 11 -22z"/>
<path d="M3259 16462 c-30 -16 -81 -45 -113 -65 -33 -20 -74 -40 -93 -43 -37
-7 -40 -14 -15 -37 45 -41 100 -29 189 41 39 31 53 38 57 27 17 -46 126 23
126 79 0 24 -3 26 -49 26 -33 0 -65 -9 -102 -28z"/>
<path d="M15550 16435 c-11 -13 -8 -15 14 -15 16 0 26 5 26 15 0 8 -6 15 -14
15 -7 0 -19 -7 -26 -15z"/>
<path d="M4530 16430 c-22 -14 -3 -41 50 -67 62 -32 98 -31 106 4 10 40 -32
73 -94 73 -26 0 -54 -5 -62 -10z"/>
<path d="M13871 16400 c-44 -21 -108 -38 -202 -55 -77 -13 -158 -29 -181 -36
-68 -17 -138 -59 -144 -86 -5 -18 -13 -23 -40 -23 -31 0 -34 -3 -29 -22 7 -32
-2 -42 -69 -80 -65 -36 -88 -66 -42 -54 23 6 26 3 26 -20 0 -20 -4 -25 -16
-20 -37 14 -126 -68 -159 -147 -21 -51 -19 -58 11 -51 17 4 29 2 35 -7 7 -11
11 -11 17 -1 11 16 37 -12 46 -49 7 -33 27 -39 129 -39 90 0 94 6 44 66 -63
74 -71 108 -37 173 24 49 171 184 253 234 77 46 133 68 284 107 184 49 235 80
197 121 -24 26 -49 24 -123 -11z"/>
<path d="M3496 16411 c15 -15 47 -17 51 -3 3 8 -6 12 -28 12 -20 0 -29 -4 -23
-9z"/>
<path d="M4060 16384 c0 -65 97 -131 175 -120 36 6 47 4 64 -13 12 -12 21 -31
21 -42 0 -17 4 -20 23 -15 12 3 29 6 38 6 32 0 69 50 69 91 0 51 -26 76 -87
84 -26 4 -57 9 -68 12 -15 4 -12 -3 14 -31 40 -41 36 -43 -37 -16 -69 26 -73
26 -65 -12 6 -31 5 -32 -13 -18 -10 8 -29 28 -42 43 -21 24 -71 57 -87 57 -3
0 -5 -12 -5 -26z"/>
<path d="M3758 16386 c-12 -6 -24 -22 -26 -34 -5 -31 23 -72 48 -72 11 0 20
-5 20 -11 0 -17 -59 -3 -210 51 l-135 49 -42 -25 c-85 -50 -108 -111 -51 -140
27 -14 53 -16 163 -11 77 3 110 2 80 -2 -72 -12 -95 -20 -95 -37 0 -32 46 -34
187 -8 156 30 236 56 270 90 28 29 29 41 2 49 -11 4 -49 28 -83 54 -72 55 -95
63 -128 47z"/>
<path d="M4745 16363 c4 -16 13 -59 19 -96 9 -49 20 -75 38 -93 l25 -25 235 1
c278 1 356 10 401 48 24 21 21 47 -9 71 -35 28 -119 28 -249 1 -157 -32 -205
-25 -289 44 -65 53 -109 76 -145 76 -31 0 -33 -2 -26 -27z"/>
<path d="M3255 16300 c-12 -4 -27 -15 -35 -25 -13 -15 -11 -16 14 -13 16 1 35
13 44 26 15 23 10 26 -23 12z"/>
<path d="M18131 16289 c-14 -5 -54 -7 -91 -3 -66 6 -67 6 -94 -26 -25 -31 -26
-34 -10 -51 26 -29 82 -42 174 -42 102 0 188 23 232 62 36 32 32 46 -17 55
-43 8 -71 -5 -79 -39 -4 -14 -13 -25 -20 -25 -11 0 -13 10 -9 40 6 40 6 40
-28 39 -19 0 -45 -5 -58 -10z"/>
<path d="M17822 16263 c5 -25 28 -28 28 -4 0 12 -6 21 -16 21 -9 0 -14 -7 -12
-17z"/>
<path d="M4573 16239 c-24 -12 -43 -25 -43 -29 0 -5 19 -18 43 -29 69 -33 127
-27 127 15 0 30 -33 64 -62 64 -13 0 -42 -9 -65 -21z"/>
<path d="M18446 16253 c-3 -4 -6 -16 -6 -28 0 -19 11 -25 73 -44 85 -25 134
-27 165 -5 44 31 28 41 -70 46 -60 3 -104 10 -124 21 -17 9 -34 13 -38 10z"/>
<path d="M4057 16233 c-9 -9 12 -33 29 -33 8 0 14 9 14 20 0 19 -28 28 -43 13z"/>
<path d="M2943 16140 c-15 -6 -27 -25 -37 -62 -8 -29 -22 -80 -31 -113 -9 -33
-23 -69 -30 -81 -12 -19 -10 -21 31 -32 28 -8 56 -26 81 -51 l37 -40 24 20
c14 10 38 19 55 19 25 0 45 15 108 80 43 43 97 89 121 101 144 73 133 92 -73
134 -138 28 -255 39 -286 25z"/>
<path d="M4445 16140 c-3 -5 1 -10 9 -10 9 0 16 5 16 10 0 6 -4 10 -9 10 -6 0
-13 -4 -16 -10z"/>
<path d="M18092 16108 c3 -7 18 -14 34 -16 l29 -2 -25 14 c-31 19 -43 20 -38
4z"/>
<path d="M17830 16108 c0 -23 22 -56 39 -61 29 -7 26 4 -9 38 -16 16 -30 26
-30 23z"/>
<path d="M4618 16081 c-56 -44 -54 -179 2 -194 22 -6 66 24 75 52 4 13 13 16
36 13 26 -4 37 3 75 43 25 25 44 51 42 57 -6 17 -75 38 -143 45 -51 4 -64 2
-87 -16z"/>
<path d="M4340 16075 c-19 -7 -48 -14 -63 -14 l-28 -1 22 -29 c16 -21 20 -37
15 -56 -7 -26 -9 -27 -56 -23 -28 3 -50 2 -50 -1 2 -22 103 -102 178 -140 37
-19 48 -20 78 -11 45 15 77 56 69 90 -3 14 -22 40 -42 57 l-36 33 23 18 c19
16 21 21 10 38 -12 19 -64 55 -78 53 -4 0 -23 -7 -42 -14z"/>
<path d="M3946 16047 c-17 -13 -16 -15 14 -40 18 -16 44 -27 61 -27 25 0 29 4
29 26 0 47 -63 71 -104 41z"/>
<path d="M5051 16048 c-80 -18 -160 -124 -149 -198 2 -20 18 -33 73 -60 l70
-35 -53 -8 c-29 -5 -50 -13 -46 -18 8 -14 64 -35 125 -48 112 -24 131 -31 120
-45 -6 -7 -24 -52 -40 -99 -43 -131 -75 -164 -135 -141 -18 7 -22 64 -6 94 8
14 5 21 -15 34 -13 9 -35 16 -47 16 -35 0 -142 54 -165 84 -11 14 -31 51 -43
83 -31 77 -56 112 -86 119 -52 13 -124 -42 -124 -95 0 -15 16 -53 35 -85 40
-67 43 -86 15 -86 -23 0 -26 -10 -8 -28 16 -16 43 -15 78 3 27 14 30 14 30 0
0 -17 -31 -51 -69 -75 -15 -10 -26 -29 -30 -53 l-6 -38 -21 20 c-15 13 -20 27
-17 44 4 18 -1 28 -16 36 -24 13 -29 51 -6 51 26 0 16 41 -19 76 -43 43 -64
43 -105 0 l-33 -34 39 -28 c21 -15 40 -29 42 -31 11 -7 -32 -52 -65 -68 -50
-23 -135 -16 -270 24 -111 33 -146 31 -197 -9 -22 -17 -27 -30 -29 -78 l-3
-57 -20 33 c-11 18 -33 42 -50 52 -46 28 -148 43 -247 36 -97 -7 -112 0 -73
37 l26 24 -68 30 c-78 35 -202 76 -284 94 -47 10 -69 9 -127 -4 -81 -19 -107
-14 -127 22 -9 17 -14 20 -15 10 -1 -53 -85 -40 -121 18 -21 34 -55 44 -65 19
-3 -8 -26 -22 -52 -32 -26 -9 -85 -37 -131 -61 -46 -24 -85 -42 -87 -40 -7 6
38 34 98 61 29 13 62 31 73 40 19 15 18 16 -25 10 -25 -4 -83 -18 -130 -32
-213 -62 -234 -63 -391 -23 -63 16 -217 43 -344 60 -231 31 -272 38 -420 66
-44 9 -97 13 -118 11 -35 -5 -38 -4 -31 16 6 20 4 21 -52 15 -56 -6 -235 -61
-284 -87 -13 -7 -54 -41 -91 -75 -61 -58 -110 -84 -159 -85 -8 0 -21 -4 -29
-9 -26 -16 44 -94 126 -141 77 -44 131 -99 110 -112 -24 -15 -87 -8 -107 12
-11 11 -20 24 -20 28 0 12 -160 -45 -186 -66 -21 -17 -21 -17 43 -76 62 -57
67 -60 116 -59 29 1 86 10 127 22 41 12 76 21 77 21 2 0 3 -16 3 -36 0 -55
-39 -88 -130 -108 -134 -31 -173 -86 -130 -182 42 -96 107 -138 152 -98 14 14
21 14 33 4 15 -13 31 -73 26 -102 -2 -16 7 -18 76 -18 55 0 85 5 101 16 17 11
34 14 63 9 46 -8 46 -17 2 -93 -31 -54 -83 -92 -181 -132 -133 -55 -181 -78
-218 -107 l-37 -27 31 -8 c45 -12 171 31 270 92 46 27 144 92 219 145 74 52
139 95 144 95 15 0 10 27 -6 40 -9 7 -15 18 -13 24 2 6 38 44 80 84 65 61 82
72 112 72 48 0 54 -16 11 -30 -43 -14 -65 -44 -65 -87 0 -39 0 -39 48 -14 21
11 62 26 92 35 52 15 55 18 55 49 0 49 38 48 131 -3 70 -38 83 -42 188 -50
135 -11 166 -23 313 -120 59 -39 130 -79 157 -88 39 -13 55 -26 75 -59 14 -23
42 -51 63 -63 27 -15 50 -42 79 -93 108 -186 147 -230 271 -305 128 -78 197
-158 198 -229 0 -33 -11 -28 -50 24 -49 65 -125 140 -163 160 -35 18 -117 34
-117 22 0 -4 41 -40 91 -80 139 -111 160 -172 123 -368 -14 -73 -14 -99 -4
-171 14 -105 49 -210 102 -313 54 -104 112 -166 196 -210 38 -20 86 -53 105
-73 52 -54 171 -278 173 -328 2 -43 -1 -39 111 -133 27 -23 72 -74 99 -113 48
-71 49 -72 52 -41 5 43 -37 123 -136 259 -88 120 -152 228 -152 256 0 13 5 16
23 10 53 -16 107 -72 202 -209 26 -38 63 -86 80 -105 18 -19 66 -80 108 -135
41 -55 92 -122 115 -149 35 -42 39 -52 30 -72 -8 -18 -7 -29 5 -48 32 -48 164
-124 333 -189 147 -57 185 -67 231 -54 56 15 86 4 153 -58 59 -54 82 -65 195
-86 33 -7 69 -18 79 -25 11 -7 47 -53 80 -101 73 -104 107 -129 249 -187 l107
-44 0 29 c0 41 27 52 86 34 51 -15 68 -9 62 21 -5 28 -61 43 -158 43 -101 1
-143 21 -167 78 -13 34 -13 45 1 115 8 43 13 86 10 96 -27 82 -56 96 -201 93
-61 -1 -114 3 -117 8 -4 5 7 29 22 53 41 61 63 124 64 180 2 64 -17 83 -78 82
-54 -1 -86 -27 -103 -86 -19 -62 -38 -85 -87 -104 -55 -21 -115 -14 -184 21
-88 45 -140 151 -148 307 -8 161 21 264 93 326 45 40 104 45 216 16 31 -8 78
-14 103 -14 41 0 46 2 46 23 0 44 36 67 102 67 45 -1 216 -25 222 -31 2 -2 33
-62 69 -134 36 -71 75 -141 87 -153 20 -22 24 -22 38 -8 14 14 14 32 3 176
-21 256 -10 290 118 364 135 78 155 112 121 210 -11 33 -20 63 -20 67 0 15 35
15 52 1 16 -13 20 -7 56 69 21 46 48 92 58 101 17 15 63 30 166 52 24 5 26 9
21 46 -3 22 0 53 6 69 32 76 206 162 325 160 50 -1 50 -1 21 -12 -76 -30 -105
-55 -105 -89 0 -28 203 46 265 97 44 35 89 94 80 103 -2 2 -23 -9 -47 -25 -24
-16 -51 -33 -62 -36 -27 -10 -91 10 -126 39 -34 29 -38 61 -15 118 33 79 -37
120 -133 76 -35 -16 -155 -99 -172 -120 -13 -15 -80 -62 -80 -55 0 4 18 29 41
56 33 40 37 49 22 49 -10 0 2 10 27 23 25 12 74 46 109 75 35 30 75 58 89 63
13 5 84 8 157 7 l133 -2 99 41 c54 23 113 47 131 54 75 27 99 69 70 122 -26
50 -75 59 -180 31 -33 -8 -63 -13 -66 -10 -11 12 23 37 72 52 50 16 94 40 85
47 -2 1 -36 13 -75 25 -90 28 -170 96 -160 135 4 17 -4 44 -27 86 -34 66 -128
209 -138 210 -3 1 -21 -29 -40 -65 -55 -107 -104 -129 -177 -79 -20 14 -47 25
-59 25 -21 0 -23 3 -17 40 21 128 -74 219 -275 264 -91 21 -140 14 -181 -24
-37 -34 -41 -90 -10 -150 24 -48 24 -47 2 -52 -13 -4 -21 -18 -25 -44 -6 -36
-4 -42 28 -69 38 -32 65 -88 65 -132 0 -50 -38 -110 -84 -132 -23 -12 -52 -21
-64 -21 -21 0 -21 0 -3 -32 11 -18 25 -58 31 -89 22 -102 -7 -169 -73 -169
-68 0 -116 85 -126 220 l-6 84 -40 9 c-108 22 -177 43 -245 74 -141 65 -223
93 -255 88 -39 -7 -45 -1 -79 68 -17 36 -38 63 -56 72 -32 16 -40 33 -40 80 0
84 66 192 140 230 81 41 95 81 35 105 -15 7 -10 9 23 9 29 1 47 7 59 21 13 15
25 18 54 14 20 -4 46 -1 58 6 20 10 61 65 61 81 0 4 -26 12 -57 18 -32 7 -78
23 -103 37 l-45 25 35 -5 c19 -3 74 -8 122 -12 77 -6 88 -5 94 10 4 10 2 28
-4 42 -9 19 -9 24 3 24 66 0 56 -137 -16 -216 -19 -20 -19 -21 2 -43 43 -46
91 -51 168 -19 50 20 54 20 86 5 39 -19 85 -9 85 17 0 15 -62 61 -172 126 -58
34 -75 60 -39 60 10 0 21 9 24 20 3 12 14 20 27 20 80 0 136 99 95 170 -19 34
-19 37 10 44 16 4 25 13 25 25 0 22 -58 75 -106 99 -19 8 -30 18 -25 22 6 3
52 2 103 -1 89 -7 178 -2 178 9 0 3 -7 14 -17 24 -9 10 -12 18 -7 18 42 -1
335 -205 366 -255 33 -55 26 -74 -57 -143 -23 -19 -26 -27 -21 -57 l7 -35 -93
0 c-111 0 -142 -12 -146 -57 -2 -24 2 -34 18 -43 18 -9 36 -6 100 16 77 27 78
28 123 10 33 -12 57 -33 91 -76 60 -76 106 -102 235 -134 57 -15 107 -29 111
-31 5 -3 6 4 3 15 -5 20 -46 60 -113 112 -60 47 -27 40 84 -18 59 -31 109 -54
110 -53 6 8 26 73 26 85 0 7 -26 36 -57 66 -95 87 -163 160 -163 174 0 8 11
21 25 30 24 16 27 15 77 -17 29 -18 69 -46 89 -61 54 -41 75 -37 149 32 l64
60 -29 31 c-28 30 -57 45 -218 117 -127 58 -155 91 -95 116 l31 14 -31 7 c-33
7 -44 25 -16 25 14 0 14 3 3 16 -7 8 -25 22 -41 30 -22 11 -27 20 -23 35 4 12
2 19 -6 19 -7 0 -51 12 -98 26 -78 24 -84 27 -66 40 18 13 18 14 -6 14 -40 1
-92 24 -149 67 -90 68 -125 70 -278 23 -91 -28 -106 -23 -99 30 4 31 0 47 -21
80 -33 49 -49 55 -115 40 -66 -16 -104 -35 -117 -59 -16 -31 -12 -93 10 -136
11 -22 20 -41 20 -42 0 -2 -13 -3 -28 -3 -81 0 -100 136 -31 222 l30 38 -38
-1 c-21 -1 -58 -6 -82 -11z"/>
<path d="M18130 16037 l-45 -21 88 -7 c49 -4 95 -10 103 -13 22 -8 17 12 -11
39 -30 31 -74 32 -135 2z"/>
<path d="M5440 16027 c0 -37 38 -77 82 -83 27 -5 50 0 91 20 31 14 61 26 66
26 22 0 10 20 -21 37 -22 11 -65 18 -125 21 l-93 4 0 -25z"/>
<path d="M14075 15995 c-29 -13 -29 -13 -5 -14 14 0 36 6 50 14 22 13 23 14 5
14 -11 0 -33 -6 -50 -14z"/>
<path d="M3362 15964 c-59 -29 -79 -45 -102 -81 -16 -25 -27 -50 -24 -54 3 -5
38 -9 77 -9 40 0 79 -4 87 -10 18 -11 15 -13 -35 -28 -46 -14 -72 -28 -64 -37
3 -3 50 -5 105 -6 112 -1 174 -7 195 -19 27 -17 -6 -30 -116 -45 -158 -22
-159 -22 -126 -62 13 -16 30 -23 53 -23 19 0 54 -11 78 -24 115 -63 132 -69
184 -63 28 3 80 18 116 33 62 26 73 28 225 28 l160 1 -2 28 c-1 19 3 27 15 27
9 0 28 9 41 19 l23 18 -76 47 c-82 51 -106 77 -155 172 -45 86 -86 126 -124
122 -47 -5 -55 -29 -29 -83 30 -62 29 -77 -5 -73 -22 2 -36 16 -63 62 -38 63
-88 99 -70 50 15 -38 13 -42 -27 -53 -52 -15 -54 -14 -42 15 5 15 8 29 5 31
-11 11 -85 14 -118 5 -35 -9 -36 -9 -42 19 -5 25 -10 29 -38 29 -18 0 -66 -16
-106 -36z"/>
<path d="M20352 15795 c-24 -15 -41 -32 -39 -38 5 -17 72 -19 152 -5 l70 13
-33 24 c-50 35 -98 37 -150 6z"/>
<path d="M12824 15576 c-19 -51 32 -72 81 -34 l28 22 -29 13 c-39 17 -73 16
-80 -1z"/>
<path d="M3903 15521 c-75 -27 -82 -33 -49 -42 40 -11 116 24 116 53 0 11 -7
10 -67 -11z"/>
<path d="M5648 15465 c-46 -26 -48 -78 -3 -89 39 -10 105 18 105 44 0 44 -57
70 -102 45z"/>
<path d="M8760 15272 c-29 -2 -53 -11 -67 -24 -31 -29 -29 -38 11 -38 33 0 66
-21 66 -41 0 -5 -25 -9 -55 -9 -49 0 -55 -2 -55 -21 0 -17 4 -20 24 -15 25 6
53 -15 42 -32 -3 -5 0 -17 7 -26 15 -21 158 -41 222 -31 22 3 73 24 114 46 41
22 94 43 118 46 32 4 49 13 61 31 15 23 15 25 -3 38 -10 8 -25 14 -32 14 -7 0
-13 10 -13 23 0 52 -41 59 -159 26 -60 -17 -91 -20 -146 -15 -38 3 -74 12 -80
19 -6 7 -28 11 -55 9z"/>
<path d="M20900 15018 l-35 -11 40 -8 c94 -17 105 -18 105 -3 0 16 -31 34 -57
33 -10 0 -34 -6 -53 -11z"/>
<path d="M5288 14939 c-46 -24 -49 -39 -8 -39 29 0 70 29 70 50 0 15 -21 11
-62 -11z"/>
<path d="M5452 14922 c-20 -15 -22 -22 -13 -45 6 -15 18 -30 27 -34 23 -9 54
31 54 68 0 23 -4 29 -22 29 -13 0 -33 -8 -46 -18z"/>
<path d="M472 14728 c3 -7 17 -15 33 -16 25 -3 27 -2 16 12 -16 19 -55 22 -49
4z"/>
<path d="M19445 14618 c-15 -22 -14 -23 5 -26 24 -4 50 14 50 34 0 22 -37 16
-55 -8z"/>
<path d="M9796 14584 c-9 -8 -21 -24 -26 -35 -6 -10 -29 -28 -50 -39 -44 -22
-49 -34 -23 -49 16 -8 16 -12 -2 -50 -10 -23 -15 -44 -11 -48 3 -4 22 -7 41
-7 29 -1 35 -5 41 -29 3 -16 17 -33 32 -41 43 -22 65 -53 66 -93 1 -37 0 -38
-42 -44 -51 -7 -81 -29 -39 -29 34 0 35 -22 2 -44 -45 -29 -32 -46 34 -46 33
0 62 -4 65 -9 3 -4 -16 -20 -42 -34 -26 -15 -58 -36 -72 -47 l-25 -20 23 0
c12 0 42 10 65 22 34 17 61 21 139 22 92 1 98 2 126 29 33 31 52 90 45 131 -6
30 -15 33 -33 11 -18 -22 -27 -19 -34 11 -7 26 -40 69 -138 180 -53 60 -57 77
-28 131 30 57 27 65 -27 63 -27 -1 -51 -1 -55 -1 -4 1 1 16 11 35 11 19 17 37
14 40 -12 11 -42 6 -57 -10z"/>
<path d="M9651 14559 c-12 -12 -20 -24 -16 -27 3 -3 18 6 33 21 31 32 16 37
-17 6z"/>
<path d="M1255 14553 c-46 -24 -65 -44 -65 -68 0 -30 9 -36 34 -23 38 19 76
61 76 85 0 27 -5 28 -45 6z"/>
<path d="M19584 14309 c3 -17 6 -38 6 -45 0 -8 7 -14 15 -14 19 0 19 11 1 55
-19 43 -31 45 -22 4z"/>
<path d="M9564 14309 c-5 -8 -7 -24 -5 -36 2 -17 -5 -26 -22 -32 -26 -10 -67
-49 -67 -63 0 -4 11 -10 25 -14 l26 -6 -21 -35 c-11 -19 -20 -43 -20 -55 0
-18 4 -19 38 -14 20 3 67 9 105 12 l67 7 0 74 c0 56 4 75 15 79 26 10 16 33
-26 60 -50 31 -103 42 -115 23z"/>
<path d="M19670 14276 c0 -9 7 -16 16 -16 17 0 14 22 -4 28 -7 2 -12 -3 -12
-12z"/>
<path d="M6815 13979 c-31 -38 -135 -212 -135 -228 0 -13 5 -14 90 -15 56 -1
73 -6 116 -33 28 -18 56 -33 62 -33 18 0 42 55 42 94 0 43 -30 73 -104 107
-28 13 -53 24 -55 26 -2 1 4 20 13 43 29 74 16 92 -29 39z"/>
<path d="M18966 13913 c-6 -14 -5 -15 5 -6 7 7 10 15 7 18 -3 3 -9 -2 -12 -12z"/>
<path d="M6410 13875 c44 -37 49 -39 74 -29 30 11 16 32 -31 48 -78 27 -91 21
-43 -19z"/>
<path d="M18649 13614 c-12 -14 -11 -16 5 -13 11 2 21 10 24 17 5 17 -13 15
-29 -4z"/>
<path d="M18500 13547 c-86 -41 -168 -42 -254 -4 -32 15 -60 27 -61 27 -1 0
-5 -20 -8 -44 -10 -71 -36 -128 -57 -121 -13 4 -19 -4 -28 -34 -18 -58 -16
-71 13 -71 27 0 35 -27 11 -36 -7 -3 -22 -26 -34 -52 -67 -152 -86 -187 -89
-165 -4 23 -5 22 -29 -6 -13 -16 -24 -34 -24 -40 0 -17 -28 -13 -38 5 -7 13
-11 12 -26 -10 -9 -14 -19 -39 -22 -55 -6 -28 -7 -29 -93 -33 -88 -5 -135 -21
-204 -72 -26 -19 -77 -92 -77 -109 0 -4 16 -7 36 -7 33 0 36 -2 29 -22 -17
-58 -17 -66 4 -78 19 -9 22 -7 31 17 6 15 18 45 27 67 17 38 17 39 -5 56 -12
10 -22 21 -22 24 0 13 61 36 123 46 82 15 112 7 37 -9 -30 -6 -62 -19 -72 -28
-19 -17 -24 -48 -8 -58 10 -6 85 28 113 53 14 13 21 13 41 3 32 -18 61 -6 76
29 7 17 22 32 34 34 165 32 168 34 207 183 58 219 59 240 6 300 l-31 36 86 -7
c81 -7 87 -6 98 13 6 12 19 21 29 21 51 0 225 112 251 161 14 25 8 23 -70 -14z"/>
<path d="M10475 12994 c-38 -11 -81 -13 -176 -9 -118 6 -129 5 -194 -20 -38
-14 -73 -29 -79 -34 -6 -5 -35 -16 -65 -26 -42 -14 -69 -16 -120 -10 -36 4
-84 8 -106 8 -39 2 -40 1 -49 -40 -10 -42 -11 -43 -51 -43 l-42 0 1 -42 1 -43
-43 -3 c-51 -4 -66 -26 -81 -120 -14 -86 -34 -123 -86 -155 -51 -33 -108 -95
-136 -148 -10 -20 -50 -76 -89 -123 -92 -112 -130 -176 -130 -215 0 -31 1 -31
49 -31 l50 0 -4 -92 c-3 -51 -9 -109 -15 -128 -17 -60 -13 -186 9 -229 11 -20
95 -112 188 -202 92 -91 182 -181 200 -201 43 -49 85 -55 176 -27 65 20 78 21
140 11 105 -18 130 -15 201 24 50 27 80 36 134 41 105 9 179 -3 205 -34 45
-51 76 -66 158 -73 44 -4 82 -10 86 -14 11 -10 5 -161 -8 -209 -6 -23 -19 -56
-30 -73 -23 -38 -24 -44 -3 -44 8 0 42 -26 74 -58 107 -108 192 -327 191 -499
0 -95 -10 -139 -53 -232 -39 -85 -39 -138 1 -228 53 -121 71 -174 105 -299 28
-103 44 -140 94 -221 93 -150 113 -201 114 -281 0 -81 15 -113 70 -149 83 -55
248 -30 433 65 97 51 210 152 276 247 31 46 34 58 39 140 l5 90 65 35 c46 25
71 46 85 72 l19 36 -27 66 c-15 37 -27 85 -27 108 0 36 6 47 43 82 24 23 73
56 110 75 83 42 149 112 172 182 20 58 22 186 5 251 -6 24 -25 82 -41 129 -38
113 -39 184 -2 257 33 65 136 177 280 302 138 120 211 203 278 313 39 64 55
101 60 140 3 28 8 64 11 78 3 17 0 28 -9 32 -7 3 -73 1 -147 -5 -73 -5 -149
-7 -168 -3 -26 5 -60 30 -126 92 -50 47 -119 112 -153 144 -34 31 -74 77 -89
101 -37 58 -95 192 -160 370 -30 81 -63 171 -75 200 -28 73 -139 258 -164 273
-11 7 -65 15 -121 19 -95 6 -172 22 -419 91 -49 14 -95 25 -102 25 -8 0 -13
-22 -15 -62 l-3 -63 -47 -3 c-26 -2 -68 4 -93 12 -25 9 -68 16 -94 16 -44 0
-50 3 -55 25 -5 19 -16 27 -49 35 -199 48 -243 83 -205 165 10 22 8 30 -12 57
-22 30 -22 32 -5 44 10 7 23 15 29 18 7 3 3 11 -8 20 -25 20 -112 20 -181 0z"/>
<path d="M17018 12229 c-29 -16 -68 -93 -68 -132 0 -59 22 -44 63 43 47 101
48 114 5 89z"/>
<path d="M5233 12120 c-43 -26 -42 -43 7 -65 37 -17 41 -17 66 -1 30 20 63 15
106 -15 55 -40 238 -89 330 -89 35 0 39 2 28 16 -26 31 -98 64 -260 118 -179
61 -227 67 -277 36z"/>
<path d="M5876 11904 c-20 -20 -20 -58 0 -78 24 -25 54 -38 71 -32 8 4 79 11
156 16 160 11 207 18 207 31 0 19 -50 32 -157 40 -62 5 -139 15 -172 24 -74
19 -86 19 -105 -1z"/>
<path d="M5561 11844 c32 -39 113 -60 107 -27 -4 23 -45 43 -87 43 -29 0 -32
-2 -20 -16z"/>
<path d="M16960 11828 c-21 -35 -27 -109 -11 -150 11 -28 56 -78 71 -78 5 0
10 8 10 18 0 11 9 45 20 77 11 32 20 73 20 92 0 71 -75 99 -110 41z"/>
<path d="M17111 11573 l-45 -16 82 -78 c45 -44 88 -79 97 -79 26 0 17 35 -25
96 -22 33 -40 67 -40 77 0 20 -11 20 -69 0z"/>
<path d="M16976 11528 c15 -50 55 -117 82 -140 17 -14 32 -33 34 -44 2 -10 11
-20 21 -22 14 -3 17 4 17 33 0 55 -38 114 -108 168 -43 33 -56 34 -46 5z"/>
<path d="M5894 11476 c-136 -43 -314 -205 -314 -285 0 -15 7 -48 15 -75 18
-58 19 -114 4 -152 -20 -54 -109 -144 -187 -190 -6 -4 -11 -79 -6 -96 3 -11
15 -18 30 -18 31 0 31 -20 -2 -51 -61 -57 -73 -142 -28 -184 15 -14 32 -25 39
-25 33 0 94 -110 140 -250 55 -168 86 -208 234 -296 154 -91 193 -161 193
-342 -1 -116 -22 -263 -62 -432 -18 -77 -33 -177 -39 -260 -6 -96 -16 -153
-31 -195 -32 -85 -69 -247 -77 -332 -3 -42 -12 -78 -19 -84 -17 -14 -18 -50
-1 -72 15 -21 27 -13 61 41 31 50 43 49 28 0 -13 -40 -31 -133 -34 -170 -2
-25 -3 -26 -20 -11 -10 9 -18 23 -18 32 0 13 -2 14 -9 2 -6 -9 -4 -31 4 -58
14 -46 11 -54 -11 -25 -13 16 -16 15 -39 -13 -14 -16 -25 -35 -25 -42 0 -6 25
-31 55 -55 30 -23 55 -48 55 -54 0 -6 -16 -14 -36 -17 -20 -3 -42 -11 -50 -18
-18 -15 -18 -66 1 -119 8 -23 15 -55 15 -71 0 -24 4 -29 25 -29 14 0 25 -4 25
-10 0 -5 -4 -10 -10 -10 -17 0 -11 -22 8 -27 9 -3 40 -34 67 -70 113 -146 162
-171 312 -159 47 4 94 11 106 15 20 7 16 12 -38 46 -92 58 -113 82 -135 153
-30 97 -26 162 11 162 11 0 25 13 34 31 9 17 41 57 71 90 70 76 70 92 -1 125
-50 24 -55 29 -55 59 0 40 19 57 73 64 39 6 42 8 48 43 3 21 20 61 37 88 39
62 40 76 7 84 -21 5 -25 12 -25 46 0 38 1 39 26 30 40 -16 89 -12 107 8 12 13
17 36 17 73 l0 54 84 2 c119 3 185 34 222 105 24 46 17 77 -26 124 -61 66 -55
74 34 56 41 -8 90 -12 108 -8 56 10 106 61 145 145 19 42 42 84 51 95 16 18
17 17 22 -9 l5 -28 33 28 c44 37 68 86 98 201 32 125 44 152 85 192 45 45 108
76 213 105 106 30 145 56 186 124 41 68 55 118 79 286 11 76 29 158 41 184 12
27 53 80 94 123 93 96 115 147 98 228 -14 68 -36 102 -64 102 -12 0 -49 19
-81 41 -101 71 -133 79 -395 99 -2 0 -1 8 2 18 5 15 -5 24 -46 45 -72 36 -128
44 -169 23 -46 -23 -52 -20 -34 15 9 17 14 33 12 36 -3 2 -26 11 -51 18 -46
14 -47 14 -58 -10 -11 -24 -38 -42 -38 -26 0 5 11 29 25 52 30 53 32 85 5 99
-11 6 -20 21 -20 35 0 54 -38 113 -93 141 -15 8 -73 26 -128 40 -165 41 -298
119 -329 194 -11 26 -18 30 -51 30 -43 0 -57 13 -38 36 10 13 10 17 -2 25 -19
13 -67 5 -122 -20 -73 -33 -89 -29 -247 61 -67 39 -90 44 -90 20 0 -12 -14
-28 -36 -41 -35 -21 -36 -24 -31 -66 5 -48 -5 -58 -24 -24 -18 34 -6 115 21
144 l23 25 -24 -1 c-13 0 -43 -6 -65 -13z"/>
<path d="M16931 11484 c0 -6 -32 -45 -71 -87 -38 -42 -76 -90 -85 -106 l-15
-30 32 10 c17 5 47 23 65 41 40 39 86 131 80 161 -2 12 -5 17 -6 11z"/>
<path d="M17223 11306 c-24 -31 -34 -36 -71 -36 -35 0 -49 -6 -73 -29 -27 -28
-37 -60 -22 -74 3 -4 12 2 20 13 23 32 57 24 125 -31 l63 -51 3 29 c2 15 9 33
16 38 8 6 16 33 20 60 14 106 -27 147 -81 81z"/>
<path d="M14644 11317 c-11 -29 2 -145 20 -172 29 -44 76 -27 76 27 0 32 -27
88 -64 133 -22 27 -25 28 -32 12z"/>
<path d="M16701 11117 c-45 -60 -164 -166 -229 -204 -28 -17 -58 -26 -85 -25
-24 0 -50 -7 -59 -16 -40 -34 -6 -152 65 -223 37 -38 61 -47 207 -74 l84 -16
27 33 c16 19 32 57 40 91 9 42 19 63 36 75 14 9 39 29 56 44 l32 27 -27 26
c-29 26 -33 40 -41 113 -4 29 -1 42 7 42 13 0 81 59 74 65 -61 51 -121 95
-133 95 -8 0 -32 -24 -54 -53z"/>
<path d="M15523 11073 c9 -16 50 -63 92 -104 53 -51 96 -106 140 -180 83 -136
197 -283 246 -316 29 -19 45 -24 66 -18 40 10 51 22 63 67 6 21 22 49 36 60
31 27 30 43 -2 75 -22 22 -32 25 -69 21 -43 -5 -44 -5 -76 46 -79 121 -294
299 -414 342 -33 12 -68 25 -79 29 -17 7 -17 6 -3 -22z"/>
<path d="M15560 10942 c0 -22 13 -42 26 -42 20 0 17 14 -6 35 -11 10 -20 13
-20 7z"/>
<path d="M17387 10885 c-28 -34 -46 -108 -33 -140 5 -15 11 -12 41 14 20 17
42 31 50 31 23 0 18 28 -10 56 -19 18 -24 31 -19 50 8 31 5 30 -29 -11z"/>
<path d="M15626 10852 c-3 -5 8 -22 24 -37 33 -31 42 -16 14 23 -16 23 -29 28
-38 14z"/>
<path d="M17074 10850 c-118 -8 -163 -27 -164 -67 0 -10 7 -10 28 -2 57 22
182 39 206 28 28 -13 60 0 76 31 12 23 24 22 -146 10z"/>
<path d="M17520 10776 c0 -18 35 -27 49 -13 18 18 12 27 -19 27 -19 0 -30 -5
-30 -14z"/>
<path d="M17591 10731 c-60 -7 -59 -12 16 -50 44 -22 127 -29 138 -11 4 6 -7
24 -24 40 -30 31 -33 31 -130 21z"/>
<path d="M16918 10714 c-30 -16 -58 -61 -58 -92 0 -11 10 -32 22 -47 12 -16
27 -49 33 -74 12 -44 12 -44 25 -22 6 13 15 50 17 82 7 77 24 76 63 -3 17 -34
36 -68 42 -75 17 -21 38 -15 38 12 0 32 -36 127 -60 158 l-19 24 40 6 c51 7
59 15 35 33 -26 19 -142 18 -178 -2z"/>
<path d="M17834 10708 c3 -13 6 -26 6 -30 0 -5 12 -8 26 -8 17 0 24 4 20 13
-3 6 -9 20 -12 30 -4 9 -15 17 -26 17 -16 0 -19 -5 -14 -22z"/>
<path d="M15720 10704 c0 -14 54 -96 74 -113 26 -22 30 -5 8 31 -24 38 -82 96
-82 82z"/>
<path d="M17205 10680 c3 -5 19 -10 36 -10 16 0 29 5 29 10 0 6 -16 10 -36 10
-21 0 -33 -4 -29 -10z"/>
<path d="M17516 10665 c4 -8 10 -15 15 -15 5 0 9 7 9 15 0 8 -7 15 -15 15 -9
0 -12 -6 -9 -15z"/>
<path d="M17915 10636 c-32 -8 -88 -11 -157 -8 -97 4 -108 3 -108 -12 0 -10 5
-26 11 -37 8 -16 17 -19 39 -14 20 4 48 -2 92 -20 35 -15 83 -34 108 -43 55
-19 67 -28 86 -65 13 -24 14 -34 3 -61 -7 -17 -19 -35 -26 -39 -16 -10 -17
-47 -1 -47 7 0 32 7 55 16 l43 17 53 -33 c28 -18 70 -35 93 -37 36 -5 45 -1
88 36 64 56 94 55 151 -3 49 -51 80 -68 150 -85 28 -7 58 -14 69 -18 14 -4 11
4 -14 36 -28 35 -39 41 -71 41 -33 0 -38 3 -44 29 -3 16 -17 43 -30 61 -27 37
-25 50 8 50 19 1 14 8 -29 48 -75 69 -165 118 -294 159 -127 40 -200 48 -275
29z"/>
<path d="M17420 10611 l-25 -8 30 -12 c44 -18 125 -26 125 -13 0 25 -86 47
-130 33z"/>
<path d="M17306 10596 c7 -17 44 -22 44 -6 0 6 -4 10 -9 10 -5 0 -17 3 -25 6
-12 5 -15 2 -10 -10z"/>
<path d="M18698 10500 c-42 -21 -86 -40 -99 -43 -36 -10 -5 -37 43 -37 75 0
142 46 136 93 l-3 24 -77 -37z"/>
<path d="M17758 10453 c-19 -22 -32 -63 -20 -63 11 0 36 27 51 58 9 18 9 22
-2 22 -8 0 -21 -8 -29 -17z"/>
<path d="M18922 10433 c3 -25 52 -72 63 -61 7 7 -46 87 -58 88 -5 0 -7 -12 -5
-27z"/>
<path d="M16137 10381 c37 -23 122 -47 208 -57 33 -3 112 -17 175 -30 63 -13
127 -24 143 -24 64 0 6 57 -71 70 l-47 7 35 14 35 13 -45 8 c-25 4 -139 11
-255 14 l-210 6 32 -21z"/>
<path d="M17582 10348 c-21 -21 -14 -48 12 -48 30 0 40 13 31 40 -7 23 -25 26
-43 8z"/>
<path d="M17275 10330 c3 -5 12 -10 20 -10 8 0 17 5 20 10 4 6 -5 10 -20 10
-15 0 -24 -4 -20 -10z"/>
<path d="M16980 10303 c-51 -6 -57 -19 -15 -33 50 -17 225 9 225 32 0 8 -144
8 -210 1z"/>
<path d="M16787 10293 c18 -2 50 -2 70 0 21 2 7 4 -32 4 -38 0 -55 -2 -38 -4z"/>
<path d="M17230 10273 c-86 -37 -113 -81 -43 -70 41 7 173 67 173 78 0 14 -92
9 -130 -8z"/>
<path d="M16897 10243 c-19 -18 5 -36 63 -47 l35 -7 -35 31 c-34 30 -51 36
-63 23z"/>
<path d="M19217 10234 c-12 -12 4 -24 30 -24 21 0 24 2 13 15 -13 16 -32 20
-43 9z"/>
<path d="M17103 10148 c2 -7 10 -13 17 -13 7 0 15 6 18 13 2 7 -5 12 -18 12
-13 0 -20 -5 -17 -12z"/>
<path d="M17637 10120 l22 -23 -82 -47 c-72 -42 -82 -51 -80 -74 1 -22 -4 -27
-38 -37 -33 -10 -45 -10 -75 4 -61 30 -91 23 -145 -33 -27 -27 -56 -50 -65
-50 -16 0 -15 -18 2 -64 5 -12 0 -16 -20 -16 -19 0 -26 5 -26 20 0 46 -43 11
-105 -85 -63 -98 -76 -107 -230 -146 -99 -26 -113 -33 -143 -66 -30 -35 -33
-37 -46 -20 -7 9 -16 17 -19 17 -3 0 -10 -29 -16 -63 -9 -52 -8 -73 4 -113 18
-61 18 -64 0 -64 -27 0 -17 -47 29 -138 60 -117 99 -237 93 -279 -3 -18 -16
-47 -27 -64 -12 -16 -21 -31 -19 -32 70 -38 143 -67 166 -67 19 0 49 14 84 41
57 43 67 44 174 23 23 -4 36 0 55 18 13 12 51 40 85 62 55 36 63 38 97 29 27
-7 45 -6 70 4 123 52 212 65 291 41 39 -12 66 -40 140 -147 17 -25 36 -41 49
-41 24 0 55 35 63 73 4 15 13 27 22 27 12 0 14 -7 10 -32 -3 -18 -9 -41 -12
-51 -7 -16 -4 -17 20 -11 l28 7 -5 -47 c-5 -40 -3 -46 12 -46 37 0 53 -15 80
-74 15 -34 33 -66 41 -72 22 -18 150 -55 169 -49 9 3 22 17 28 30 16 34 44 31
65 -5 21 -35 26 -36 108 -10 135 41 194 101 230 231 11 41 38 108 58 149 59
117 75 174 76 270 0 116 -30 203 -96 276 -27 30 -49 64 -49 75 0 15 -13 26
-49 41 -41 18 -50 27 -60 60 -12 38 -29 53 -116 100 -31 17 -60 73 -107 208
-16 45 -34 76 -61 100 -29 27 -41 50 -53 95 -16 60 -29 85 -45 85 -5 0 -9 -7
-9 -15 0 -9 -7 -30 -16 -47 -10 -19 -20 -76 -25 -142 -11 -131 -25 -159 -82
-164 -32 -3 -52 7 -137 65 -94 64 -100 70 -100 103 0 22 11 51 30 80 35 52 36
60 13 60 -10 0 -54 11 -98 25 -44 14 -102 28 -130 31 l-50 6 22 -22z"/>
<path d="M17515 10120 c3 -5 24 -10 46 -10 21 0 39 5 39 10 0 6 -21 10 -46 10
-27 0 -43 -4 -39 -10z"/>
<path d="M12850 10048 c0 -25 -47 -113 -74 -140 -18 -17 -47 -31 -80 -38 -28
-6 -67 -20 -85 -31 l-33 -20 7 -103 c5 -84 4 -109 -9 -134 -60 -117 -33 -281
50 -305 37 -11 107 6 133 32 12 12 21 41 26 82 3 35 10 80 15 99 28 113 30
117 60 130 17 7 35 20 39 29 15 27 35 253 27 303 -4 28 -18 60 -32 78 -27 32
-44 38 -44 18z"/>
<path d="M19470 9591 c0 -21 99 -110 131 -119 68 -18 43 24 -54 89 -60 40 -77
46 -77 30z"/>
<path d="M20016 8643 c42 -94 44 -102 44 -164 0 -51 -2 -59 -19 -59 -20 0 -35
-25 -25 -41 3 -5 13 -9 22 -9 10 0 28 -21 44 -50 16 -28 34 -50 42 -50 8 0 25
15 38 33 12 17 37 46 55 63 18 17 40 48 49 70 15 35 15 39 -2 51 -10 7 -37 13
-61 13 -31 0 -43 4 -43 14 0 8 -5 27 -10 42 -10 25 -12 26 -29 10 -9 -9 -20
-16 -23 -16 -3 0 -16 24 -28 53 -22 51 -56 97 -72 97 -4 0 4 -26 18 -57z"/>
<path d="M18304 8375 c-3 -8 -3 -19 1 -25 11 -18 25 -11 25 15 0 27 -17 34
-26 10z"/>
<path d="M18540 8357 c0 -17 20 -37 37 -37 8 0 10 7 6 18 -11 29 -43 44 -43
19z"/>
<path d="M18350 8287 c0 -26 45 -99 81 -131 41 -38 69 -46 69 -21 0 8 9 15 19
15 22 0 28 13 37 78 l6 49 -73 8 c-120 13 -139 14 -139 2z"/>
<path d="M19922 8287 c-6 -7 -18 -35 -27 -62 -22 -65 -35 -79 -127 -132 -92
-53 -128 -92 -128 -138 0 -45 22 -59 86 -59 64 1 74 9 149 110 32 42 65 76 84
83 26 11 30 17 25 38 -5 19 1 32 26 58 41 42 34 66 -24 94 -50 25 -50 25 -64
8z"/>
<path d="M19677 7863 c-12 -11 -8 -23 8 -23 8 0 15 7 15 15 0 16 -12 20 -23 8z"/>
</g>
</svg>
